<?xml version="1.0" encoding="utf-8"?>
<!-- Generator: Adobe Illustrator 16.0.0, SVG Export Plug-In . SVG Version: 6.00 Build 0)  -->
<!DOCTYPE svg PUBLIC "-//W3C//DTD SVG 1.1//EN" "http://www.w3.org/Graphics/SVG/1.1/DTD/svg11.dtd">
<svg version="1.1" id="Layer_1" xmlns="http://www.w3.org/2000/svg" xmlns:xlink="http://www.w3.org/1999/xlink" x="0px" y="0px"
	 width="314.667px" height="292px" viewBox="0 0 314.667 292" enable-background="new 0 0 314.667 292" xml:space="preserve">
<rect x="-181.833" y="-172.833" display="none" fill="#1E0505" stroke="#000000" stroke-miterlimit="10" width="780" height="635"/>
<g id="Layer_2">
</g>
<g id="Shopping">
	<path fill="#FFFFFF" d="M307.657,278.153c-0.021,2.986,4.595-4.307,1.938-3.188c-1.188,0.5-1.051-0.12-2.563-1.375
		c-0.974-0.809-1.303-0.861-3.059-2.514c-1.932-1.818-5.432-4.16-6.619-5.91c-0.205-0.303,15.998-11.188,13.938-11.188
		c-2.405,0-9.986,1.806-11.729,3.584l-1.177,1.204l3.243-13.526c0,0-7.021-0.488-7.952,4.322c-0.627,3.22-3.713,14.978-3.713,14.978
		c-0.494,2.362,0.327,3.524-0.036,5.57c-0.666,3.75-1.375,5.75-2.458,8.708l6.208,0.042l3.631-15.542
		c0.349-1.384-6.582-1.215-4.079-1.215c0.943,0-1.438,0.996-1.438,3.563c0,1.617,1.693-0.477,1.057,1.91
		c-0.623,2.342,0.063-0.671,0.063,1c0,1.563-4.283,2.258,1.234,2.258c2.73,0,12.604,13.438,15.637,5.943L307.657,278.153z"/>
	<path fill="#FFFFFF" d="M241.606,269.653c-0.02,2.985-1.648,5.235-4.456,5.235c-1.229,0-2.691-0.434-2.691-2.503
		c0-1.315,0.567-3.305,1.168-5.409c0.706-2.474,1.506-5.278,1.506-7.429c0-4.302-3.108-5.207-5.72-5.207
		c-2.406,0-4.424,0.868-6.168,2.647l-1.178,1.203l3.245-13.524c0,0-7.022-0.488-7.952,4.32c-0.628,3.22-3.715,14.978-3.715,14.978
		c0.64,1.571,1.024,3.347,1.035,5.427c0.02,3.573-1.012,6.648-2.766,9.199h5.315l3.763-15.846c0.349-1.383,2.187-4.703,4.691-4.703
		c0.939,0,2.521,0.386,2.521,2.953c0,1.616-0.599,3.87-1.236,6.258c-0.625,2.342-1.27,4.759-1.27,6.43
		c0,1.564,0.594,5.206,6.109,5.206c2.732,0,6.672-0.883,9.707-8.377L241.606,269.653z"/>
	<path fill="#FFFFFF" d="M273.721,279.032c-3.854,0-8.448-1.292-8.448-7.445c0-5.627,3.62-17.248,14.801-17.248
		c4.487,0,6.669,2.467,6.669,7.543v0.258l0.256,0.114c0.32,0.143,0.635,0.143,0.82,0.143c2.533,0,5.908-1.336,8.332-2.751
		l0.217,0.588c-2.02,1.833-5.509,3.254-9.406,3.83l-0.354,0.05l-0.031,0.322C285.731,273.166,280.567,279.032,273.721,279.032z
		 M280.522,256.544c-4.47,0-7.877,9.593-7.877,14.396c0,3.363,0.806,4.44,3.309,4.44c3.019,0,5.996-4.598,6.924-10.702l0.053-0.372
		l-0.412-0.089c-0.532-0.114-1.145-0.407-1.145-1.686c0-1.118,0.516-1.938,1.451-2.31l0.293-0.111l-0.014-0.285
		C283.008,258.121,282.633,256.544,280.522,256.544z"/>
	<path fill="#FFFFFF" d="M250.104,279.032c-3.856,0-8.449-1.292-8.449-7.445c0-5.627,3.619-17.248,14.799-17.248
		c4.487,0,6.668,2.467,6.668,7.543v0.258l0.258,0.114c0.321,0.143,0.638,0.143,0.82,0.143c2.532,0,5.908-1.336,8.332-2.751
		l0.22,0.588c-2.02,1.833-5.513,3.254-9.408,3.83l-0.354,0.05l-0.03,0.322C262.112,273.166,256.946,279.032,250.104,279.032z
		 M256.901,256.544c-4.467,0-7.873,9.593-7.873,14.396c0,3.363,0.803,4.44,3.308,4.44c3.017,0,5.996-4.598,6.923-10.702l0.055-0.372
		l-0.412-0.089c-0.533-0.114-1.148-0.407-1.148-1.686c0-1.118,0.518-1.938,1.456-2.31l0.291-0.111l-0.017-0.285
		C259.391,258.121,259.014,256.544,256.901,256.544z"/>
	<path fill="#FFFFFF" d="M34.045,246.753c-0.083,0.902,1.641,1.573,2.682,1.549c3.435-0.07,6.157-2.991,6.028-6.691
		c-0.249-7.196-7.824-8.39-12.265-8.298c-9.896,0.202-16.138,4.938-16.098,11.461c0.022,4.521,4.016,7.982,7.824,11.39
		c4.259,3.818,8.663,7.762,8.698,13.933c0.033,5.665-5.89,10.89-12.499,10.748c-8.256-0.175-13.207-5.654-10.509-12.155
		c1.253-1.44,4.397,1.113,4.397,1.113c-0.273-4.827,1.046-8.644,3.074-11.391c-4.004,1.821-6.53,3.974-8.103,5.802
		c-2.124,2.308-3.75,5.813-3.75,9.835c0,6.872,6.417,11.992,16.356,11.789c10.577-0.216,20.803-6.587,20.741-17.773
		c-0.046-7.685-5.053-11.359-9.896-14.914c-3.992-2.932-7.764-5.702-7.792-10.406c-0.024-4.169,2.885-6.719,7.782-6.818
		c4.019-0.081,6.424,1.754,6.443,4.919C37.171,243.076,35.896,245.439,34.045,246.753z"/>
	<path fill="#FFFFFF" d="M68.834,268.628c-0.021,2.986-1.651,5.237-4.455,5.237c-1.23,0-2.694-0.434-2.694-2.503
		c0-1.315,0.567-3.304,1.17-5.409c0.706-2.474,1.505-5.278,1.505-7.43c0-4.304-3.11-5.207-5.721-5.207
		c-2.405,0-4.424,0.868-6.168,2.646l-1.177,1.204l3.244-13.526c0,0-7.021-0.488-7.953,4.322c-0.626,3.22-3.712,14.978-3.712,14.978
		c0.637,1.57,1.022,3.347,1.034,5.426c0.02,3.574-1.013,6.649-2.766,9.197h5.315l3.761-15.844c0.349-1.384,2.188-4.702,4.69-4.702
		c0.943,0,2.526,0.385,2.526,2.952c0,1.617-0.602,3.871-1.239,6.258c-0.624,2.342-1.271,4.76-1.271,6.431
		c0,1.563,0.595,5.206,6.113,5.206c2.73,0,6.671-0.883,9.705-8.378L68.834,268.628z"/>
	<path fill="#FFFFFF" d="M77.187,277.761c-3.855,0-8.45-1.29-8.45-7.444c0-5.626,3.619-17.248,14.803-17.248
		c4.486,0,6.668,2.467,6.668,7.544v0.256l0.255,0.115c0.32,0.143,0.634,0.143,0.819,0.143c2.534,0,5.908-1.337,8.333-2.75
		l0.218,0.59c-2.021,1.832-5.51,3.253-9.408,3.827l-0.353,0.05l-0.033,0.321C89.194,271.897,84.03,277.761,77.187,277.761z
		 M83.986,255.276c-4.468,0-7.876,9.591-7.876,14.393c0,3.366,0.804,4.444,3.308,4.444c3.016,0,5.994-4.6,6.923-10.706l0.056-0.371
		l-0.415-0.09c-0.531-0.113-1.146-0.405-1.146-1.684c0-1.118,0.519-1.938,1.453-2.311l0.293-0.112l-0.016-0.284
		C86.474,256.851,86.098,255.276,83.986,255.276z"/>
	<path fill="#FFFFFF" d="M98.118,251.677h7.073l-1.061,4.433l1.046-0.803c1.755-1.352,3.849-2.04,6.215-2.04
		c4.201,0,6.333,2.505,6.333,7.448c0,6.368-2.788,17.147-13.24,17.147c-2.194,0-3.654-0.531-4.336-1.585l-0.604-0.933
		c0,0-0.821,3.776-1.912,7.958c-1.277,4.912-8.24,4.912-8.24,4.912L98.118,251.677z M107.771,256.022
		c-1.513,0-3.177,1.036-4.243,2.639l-0.04,0.061l-3.332,14.111l0.046,0.111c0.362,0.888,1.315,1.419,2.552,1.419
		c6.02,0,8.263-8.464,8.263-13.798C111.019,257.551,109.927,256.022,107.771,256.022z"/>
	<path fill="#FFFFFF" d="M123.506,251.677h7.07l-1.057,4.433l1.041-0.803c1.76-1.352,3.851-2.04,6.217-2.04
		c4.203,0,6.334,2.505,6.334,7.448c0,6.368-2.789,17.147-13.243,17.147c-2.191,0-3.651-0.531-4.331-1.585l-0.606-0.933
		c0,0-0.821,3.776-1.913,7.958c-1.28,4.912-8.238,4.912-8.238,4.912L123.506,251.677z M133.156,256.022
		c-1.512,0-3.175,1.036-4.245,2.639l-0.035,0.061l-3.329,14.111l0.042,0.111c0.362,0.888,1.314,1.419,2.555,1.419
		c6.018,0,8.264-8.464,8.264-13.798C136.407,257.551,135.314,256.022,133.156,256.022z"/>
	<path fill="#FFFFFF" d="M150.257,277.862c-3.489,0-5.494-2.026-5.494-5.556c0-0.864,0.142-1.892,0.434-3.149l3.712-15.638h7.069
		l-3.89,16.416c-0.162,0.608-0.23,1.144-0.23,1.675c0,1.998,1.466,2.255,2.748,2.255c2.207,0,4.37-1.784,5.349-4.38h1.343
		C158.386,276.392,153.711,277.862,150.257,277.862z M154.045,250.002c-2.205,0-3.933-1.544-3.933-3.517
		c0-1.966,1.762-3.565,3.933-3.565c2.204,0,3.996,1.599,3.996,3.565C158.042,248.425,156.249,250.002,154.045,250.002z"/>
	<path fill="#FFFFFF" d="M179.728,277.862c-5.512,0-6.108-3.643-6.108-5.206c0-1.671,0.642-4.088,1.271-6.431
		c0.633-2.387,1.233-4.641,1.233-6.258c0-2.567-1.548-2.952-2.466-2.952c-2.007,0-3.753,1.775-4.795,4.872l-3.715,15.674h-7.077
		l5.71-24.044h7.075l-0.869,3.641l1.175-1.197c1.745-1.778,3.764-2.646,6.17-2.646c2.611,0,5.722,0.903,5.722,5.207
		c0,2.152-0.803,4.956-1.508,7.43c-0.6,2.104-1.166,4.093-1.166,5.409c0,2.069,1.463,2.503,2.688,2.503
		c2.81,0,4.037-2.231,4.416-4.35h1.379C187.484,277.181,182.457,277.862,179.728,277.862z"/>
	<path fill="#FFFFFF" d="M197.552,290c-3.005,0-6.11-1.854-6.11-4.959c0-4.283,3.857-5.628,9.305-7.066l0.269-0.068l0.907-3.794
		l-1.145,1.092c-1.846,1.762-3.977,2.657-6.347,2.657c-2.088,0-6.947-0.74-6.947-7.597c0-5.926,4.067-16.998,13.856-16.998
		c1.846,0,4.969,0.47,4.969,2.309l0,0l0.476-2.058h7.13l-6.678,28.354C205.973,287.266,202.711,290,197.552,290z M200.079,278.778
		c-3.023,0.902-6.499,2.349-6.499,5.568c0,0.933,1.2,2.056,2.69,2.056c0.812,0,2.803-0.41,3.74-4.206l0.83-3.645L200.079,278.778z
		 M203.067,255.523c-5.125,0-8.26,9.097-8.26,14.047c0,3.808,1.735,4.294,3.246,4.294c1.634,0,4.232-1.259,4.911-4.058l2.858-12.114
		l-0.01-0.077C205.635,256.605,204.827,255.523,203.067,255.523z"/>
</g>
<path fill="#FFFFFF" d="M210.772,135.328c-5.416-27.7-24.559-40.805-43.076-53.483c-15.258-10.47-29.676-20.342-32.994-37.301
	c-2.945-15.038,4.951-25.996,21.134-26.489c13.279-0.408,22.541,7.863,24.777,19.264c1.574,8.036-1.035,16.579-6.277,21.371
	c1.707,3.275,7.896,5.022,11.32,4.915c11.354-0.355,16.496-10.258,14.064-23.681c-4.666-25.716-29.863-34.313-46.587-33.763
	c-32.689,1.105-48.858,22.53-44.261,46.044c3.189,16.297,17.328,27.812,32.301,39.998c16.761,13.638,34.48,27.529,39.077,46.876
	c5.323,22.497-10.552,43.022-34.403,42.923c-26.906-0.116-47.01-19.325-43.448-42.304c0.532-4.189,14.293,0.568,14.293,0.568
	c-3.865-9.91-2.968-27.236,3.673-39.051c-12.034,6.673-18.941,14.491-22.911,21.122c-5.461,8.379-9.298,20.246-6.539,34.748
	c4.716,24.759,24.931,49.868,63.375,49.934C192.176,207.089,218.665,175.665,210.772,135.328z"/>
</svg>
